<mxfile host="app.diagrams.net" modified="2022-12-07T10:34:09.554Z" agent="5.0 (Windows NT 10.0; Win64; x64) AppleWebKit/537.36 (KHTML, like Gecko) Chrome/107.0.0.0 Safari/537.36 OPR/93.0.0.0" version="20.6.0" etag="QFZfETmvicdf1AdnPryl" type="github">
  <diagram id="Rnmi3jdKVeVZyV7SX7Za" name="Page-1">
    <mxGraphModel dx="688" dy="372" grid="1" gridSize="10" guides="1" tooltips="1" connect="1" arrows="1" fold="1" page="1" pageScale="1" pageWidth="1169" pageHeight="1654" math="0" shadow="0">
      <root>
        <mxCell id="0" />
        <mxCell id="1" parent="0" />
        <mxCell id="_ivJ-W4mwV5zko-eiE7a-19" value="" style="rounded=0;whiteSpace=wrap;html=1;strokeWidth=1;fontSize=4;fontStyle=1" vertex="1" parent="1">
          <mxGeometry x="290" y="280" width="400" height="80" as="geometry" />
        </mxCell>
        <mxCell id="_ivJ-W4mwV5zko-eiE7a-11" value="ALU&lt;br&gt;Arithmetic Logic Unit" style="text;html=1;align=center;verticalAlign=middle;resizable=0;points=[];autosize=1;strokeColor=none;fillColor=none;rotation=0;fontSize=7;strokeWidth=1;arcSize=12;fontStyle=1" vertex="1" parent="1">
          <mxGeometry x="445" y="305" width="90" height="30" as="geometry" />
        </mxCell>
        <mxCell id="_ivJ-W4mwV5zko-eiE7a-20" value="" style="endArrow=none;html=1;rounded=0;entryX=0.31;entryY=0;entryDx=0;entryDy=0;entryPerimeter=0;" edge="1" parent="1">
          <mxGeometry width="50" height="50" relative="1" as="geometry">
            <mxPoint x="310.1" y="230" as="sourcePoint" />
            <mxPoint x="310" y="280" as="targetPoint" />
          </mxGeometry>
        </mxCell>
        <mxCell id="_ivJ-W4mwV5zko-eiE7a-21" value="" style="endArrow=none;html=1;rounded=0;entryX=0.31;entryY=0;entryDx=0;entryDy=0;entryPerimeter=0;" edge="1" parent="1">
          <mxGeometry width="50" height="50" relative="1" as="geometry">
            <mxPoint x="320.1" y="230" as="sourcePoint" />
            <mxPoint x="320" y="280" as="targetPoint" />
          </mxGeometry>
        </mxCell>
        <mxCell id="_ivJ-W4mwV5zko-eiE7a-22" value="" style="endArrow=none;html=1;rounded=0;entryX=0.31;entryY=0;entryDx=0;entryDy=0;entryPerimeter=0;" edge="1" parent="1">
          <mxGeometry width="50" height="50" relative="1" as="geometry">
            <mxPoint x="330.1" y="230" as="sourcePoint" />
            <mxPoint x="330" y="280" as="targetPoint" />
          </mxGeometry>
        </mxCell>
        <mxCell id="_ivJ-W4mwV5zko-eiE7a-23" value="" style="endArrow=none;html=1;rounded=0;entryX=0.31;entryY=0;entryDx=0;entryDy=0;entryPerimeter=0;" edge="1" parent="1">
          <mxGeometry width="50" height="50" relative="1" as="geometry">
            <mxPoint x="340.1" y="230" as="sourcePoint" />
            <mxPoint x="340" y="280" as="targetPoint" />
          </mxGeometry>
        </mxCell>
        <mxCell id="_ivJ-W4mwV5zko-eiE7a-24" value="" style="endArrow=none;html=1;rounded=0;entryX=0.31;entryY=0;entryDx=0;entryDy=0;entryPerimeter=0;" edge="1" parent="1">
          <mxGeometry width="50" height="50" relative="1" as="geometry">
            <mxPoint x="350.1" y="230" as="sourcePoint" />
            <mxPoint x="350" y="280" as="targetPoint" />
          </mxGeometry>
        </mxCell>
        <mxCell id="_ivJ-W4mwV5zko-eiE7a-25" value="" style="endArrow=none;html=1;rounded=0;entryX=0.31;entryY=0;entryDx=0;entryDy=0;entryPerimeter=0;" edge="1" parent="1">
          <mxGeometry width="50" height="50" relative="1" as="geometry">
            <mxPoint x="360.1" y="230" as="sourcePoint" />
            <mxPoint x="360" y="280" as="targetPoint" />
          </mxGeometry>
        </mxCell>
        <mxCell id="_ivJ-W4mwV5zko-eiE7a-26" value="" style="endArrow=none;html=1;rounded=0;entryX=0.31;entryY=0;entryDx=0;entryDy=0;entryPerimeter=0;" edge="1" parent="1">
          <mxGeometry width="50" height="50" relative="1" as="geometry">
            <mxPoint x="370.1" y="230" as="sourcePoint" />
            <mxPoint x="370" y="280" as="targetPoint" />
          </mxGeometry>
        </mxCell>
        <mxCell id="_ivJ-W4mwV5zko-eiE7a-27" value="" style="endArrow=none;html=1;rounded=0;entryX=0.31;entryY=0;entryDx=0;entryDy=0;entryPerimeter=0;" edge="1" parent="1">
          <mxGeometry width="50" height="50" relative="1" as="geometry">
            <mxPoint x="400.1" y="230" as="sourcePoint" />
            <mxPoint x="400" y="280" as="targetPoint" />
          </mxGeometry>
        </mxCell>
        <mxCell id="_ivJ-W4mwV5zko-eiE7a-28" value="" style="endArrow=none;html=1;rounded=0;entryX=0.31;entryY=0;entryDx=0;entryDy=0;entryPerimeter=0;" edge="1" parent="1">
          <mxGeometry width="50" height="50" relative="1" as="geometry">
            <mxPoint x="390.1" y="230" as="sourcePoint" />
            <mxPoint x="390" y="280" as="targetPoint" />
          </mxGeometry>
        </mxCell>
        <mxCell id="_ivJ-W4mwV5zko-eiE7a-29" value="" style="endArrow=none;html=1;rounded=0;entryX=0.31;entryY=0;entryDx=0;entryDy=0;entryPerimeter=0;" edge="1" parent="1">
          <mxGeometry width="50" height="50" relative="1" as="geometry">
            <mxPoint x="410.1" y="230" as="sourcePoint" />
            <mxPoint x="410" y="280" as="targetPoint" />
          </mxGeometry>
        </mxCell>
        <mxCell id="_ivJ-W4mwV5zko-eiE7a-30" value="" style="endArrow=none;html=1;rounded=0;entryX=0.31;entryY=0;entryDx=0;entryDy=0;entryPerimeter=0;" edge="1" parent="1">
          <mxGeometry width="50" height="50" relative="1" as="geometry">
            <mxPoint x="420.1" y="230" as="sourcePoint" />
            <mxPoint x="420" y="280" as="targetPoint" />
          </mxGeometry>
        </mxCell>
        <mxCell id="_ivJ-W4mwV5zko-eiE7a-31" value="" style="endArrow=none;html=1;rounded=0;entryX=0.31;entryY=0;entryDx=0;entryDy=0;entryPerimeter=0;" edge="1" parent="1">
          <mxGeometry width="50" height="50" relative="1" as="geometry">
            <mxPoint x="430.1" y="230" as="sourcePoint" />
            <mxPoint x="430" y="280" as="targetPoint" />
          </mxGeometry>
        </mxCell>
        <mxCell id="_ivJ-W4mwV5zko-eiE7a-32" value="" style="endArrow=none;html=1;rounded=0;entryX=0.31;entryY=0;entryDx=0;entryDy=0;entryPerimeter=0;" edge="1" parent="1">
          <mxGeometry width="50" height="50" relative="1" as="geometry">
            <mxPoint x="440.1" y="230" as="sourcePoint" />
            <mxPoint x="440" y="280" as="targetPoint" />
          </mxGeometry>
        </mxCell>
        <mxCell id="_ivJ-W4mwV5zko-eiE7a-33" value="" style="endArrow=none;html=1;rounded=0;entryX=0.31;entryY=0;entryDx=0;entryDy=0;entryPerimeter=0;" edge="1" parent="1">
          <mxGeometry width="50" height="50" relative="1" as="geometry">
            <mxPoint x="450.1" y="230" as="sourcePoint" />
            <mxPoint x="450" y="280" as="targetPoint" />
          </mxGeometry>
        </mxCell>
        <mxCell id="_ivJ-W4mwV5zko-eiE7a-34" value="" style="endArrow=none;html=1;rounded=0;entryX=0.31;entryY=0;entryDx=0;entryDy=0;entryPerimeter=0;" edge="1" parent="1">
          <mxGeometry width="50" height="50" relative="1" as="geometry">
            <mxPoint x="460.1" y="230" as="sourcePoint" />
            <mxPoint x="460" y="280" as="targetPoint" />
          </mxGeometry>
        </mxCell>
        <mxCell id="_ivJ-W4mwV5zko-eiE7a-35" value="" style="endArrow=none;html=1;rounded=0;entryX=0.31;entryY=0;entryDx=0;entryDy=0;entryPerimeter=0;" edge="1" parent="1">
          <mxGeometry width="50" height="50" relative="1" as="geometry">
            <mxPoint x="380.1" y="230" as="sourcePoint" />
            <mxPoint x="380" y="280" as="targetPoint" />
          </mxGeometry>
        </mxCell>
        <mxCell id="_ivJ-W4mwV5zko-eiE7a-36" value="" style="endArrow=none;html=1;rounded=0;entryX=0.31;entryY=0;entryDx=0;entryDy=0;entryPerimeter=0;" edge="1" parent="1">
          <mxGeometry width="50" height="50" relative="1" as="geometry">
            <mxPoint x="520" y="80" as="sourcePoint" />
            <mxPoint x="520" y="280" as="targetPoint" />
          </mxGeometry>
        </mxCell>
        <mxCell id="_ivJ-W4mwV5zko-eiE7a-37" value="" style="endArrow=none;html=1;rounded=0;entryX=0.31;entryY=0;entryDx=0;entryDy=0;entryPerimeter=0;" edge="1" parent="1">
          <mxGeometry width="50" height="50" relative="1" as="geometry">
            <mxPoint x="530" y="90" as="sourcePoint" />
            <mxPoint x="530" y="280" as="targetPoint" />
          </mxGeometry>
        </mxCell>
        <mxCell id="_ivJ-W4mwV5zko-eiE7a-38" value="" style="endArrow=none;html=1;rounded=0;entryX=0.31;entryY=0;entryDx=0;entryDy=0;entryPerimeter=0;" edge="1" parent="1">
          <mxGeometry width="50" height="50" relative="1" as="geometry">
            <mxPoint x="540" y="100" as="sourcePoint" />
            <mxPoint x="540" y="280" as="targetPoint" />
          </mxGeometry>
        </mxCell>
        <mxCell id="_ivJ-W4mwV5zko-eiE7a-39" value="" style="endArrow=none;html=1;rounded=0;entryX=0.31;entryY=0;entryDx=0;entryDy=0;entryPerimeter=0;" edge="1" parent="1">
          <mxGeometry width="50" height="50" relative="1" as="geometry">
            <mxPoint x="550" y="110" as="sourcePoint" />
            <mxPoint x="550" y="280" as="targetPoint" />
          </mxGeometry>
        </mxCell>
        <mxCell id="_ivJ-W4mwV5zko-eiE7a-40" value="" style="endArrow=none;html=1;rounded=0;entryX=0.31;entryY=0;entryDx=0;entryDy=0;entryPerimeter=0;" edge="1" parent="1">
          <mxGeometry width="50" height="50" relative="1" as="geometry">
            <mxPoint x="560" y="120" as="sourcePoint" />
            <mxPoint x="560" y="280" as="targetPoint" />
          </mxGeometry>
        </mxCell>
        <mxCell id="_ivJ-W4mwV5zko-eiE7a-41" value="" style="endArrow=none;html=1;rounded=0;entryX=0.31;entryY=0;entryDx=0;entryDy=0;entryPerimeter=0;" edge="1" parent="1">
          <mxGeometry width="50" height="50" relative="1" as="geometry">
            <mxPoint x="570" y="130" as="sourcePoint" />
            <mxPoint x="570" y="280" as="targetPoint" />
          </mxGeometry>
        </mxCell>
        <mxCell id="_ivJ-W4mwV5zko-eiE7a-42" value="" style="endArrow=none;html=1;rounded=0;entryX=0.31;entryY=0;entryDx=0;entryDy=0;entryPerimeter=0;" edge="1" parent="1">
          <mxGeometry width="50" height="50" relative="1" as="geometry">
            <mxPoint x="580" y="140" as="sourcePoint" />
            <mxPoint x="580" y="280" as="targetPoint" />
          </mxGeometry>
        </mxCell>
        <mxCell id="_ivJ-W4mwV5zko-eiE7a-43" value="" style="endArrow=none;html=1;rounded=0;entryX=0.31;entryY=0;entryDx=0;entryDy=0;entryPerimeter=0;" edge="1" parent="1">
          <mxGeometry width="50" height="50" relative="1" as="geometry">
            <mxPoint x="610" y="170" as="sourcePoint" />
            <mxPoint x="610" y="280" as="targetPoint" />
          </mxGeometry>
        </mxCell>
        <mxCell id="_ivJ-W4mwV5zko-eiE7a-44" value="" style="endArrow=none;html=1;rounded=0;entryX=0.31;entryY=0;entryDx=0;entryDy=0;entryPerimeter=0;" edge="1" parent="1">
          <mxGeometry width="50" height="50" relative="1" as="geometry">
            <mxPoint x="600" y="160" as="sourcePoint" />
            <mxPoint x="600" y="280" as="targetPoint" />
          </mxGeometry>
        </mxCell>
        <mxCell id="_ivJ-W4mwV5zko-eiE7a-45" value="" style="endArrow=none;html=1;rounded=0;entryX=0.31;entryY=0;entryDx=0;entryDy=0;entryPerimeter=0;" edge="1" parent="1">
          <mxGeometry width="50" height="50" relative="1" as="geometry">
            <mxPoint x="620" y="180" as="sourcePoint" />
            <mxPoint x="620" y="280" as="targetPoint" />
          </mxGeometry>
        </mxCell>
        <mxCell id="_ivJ-W4mwV5zko-eiE7a-46" value="" style="endArrow=none;html=1;rounded=0;entryX=0.31;entryY=0;entryDx=0;entryDy=0;entryPerimeter=0;" edge="1" parent="1">
          <mxGeometry width="50" height="50" relative="1" as="geometry">
            <mxPoint x="630" y="190" as="sourcePoint" />
            <mxPoint x="630" y="280" as="targetPoint" />
          </mxGeometry>
        </mxCell>
        <mxCell id="_ivJ-W4mwV5zko-eiE7a-47" value="" style="endArrow=none;html=1;rounded=0;entryX=0.31;entryY=0;entryDx=0;entryDy=0;entryPerimeter=0;" edge="1" parent="1">
          <mxGeometry width="50" height="50" relative="1" as="geometry">
            <mxPoint x="640" y="200" as="sourcePoint" />
            <mxPoint x="640" y="280" as="targetPoint" />
          </mxGeometry>
        </mxCell>
        <mxCell id="_ivJ-W4mwV5zko-eiE7a-48" value="" style="endArrow=none;html=1;rounded=0;entryX=0.31;entryY=0;entryDx=0;entryDy=0;entryPerimeter=0;" edge="1" parent="1">
          <mxGeometry width="50" height="50" relative="1" as="geometry">
            <mxPoint x="650" y="210" as="sourcePoint" />
            <mxPoint x="650" y="280" as="targetPoint" />
          </mxGeometry>
        </mxCell>
        <mxCell id="_ivJ-W4mwV5zko-eiE7a-49" value="" style="endArrow=none;html=1;rounded=0;entryX=0.31;entryY=0;entryDx=0;entryDy=0;entryPerimeter=0;" edge="1" parent="1">
          <mxGeometry width="50" height="50" relative="1" as="geometry">
            <mxPoint x="660" y="220" as="sourcePoint" />
            <mxPoint x="660" y="280" as="targetPoint" />
          </mxGeometry>
        </mxCell>
        <mxCell id="_ivJ-W4mwV5zko-eiE7a-50" value="" style="endArrow=none;html=1;rounded=0;entryX=0.31;entryY=0;entryDx=0;entryDy=0;entryPerimeter=0;" edge="1" parent="1">
          <mxGeometry width="50" height="50" relative="1" as="geometry">
            <mxPoint x="670" y="230" as="sourcePoint" />
            <mxPoint x="670" y="280" as="targetPoint" />
          </mxGeometry>
        </mxCell>
        <mxCell id="_ivJ-W4mwV5zko-eiE7a-51" value="" style="endArrow=none;html=1;rounded=0;entryX=0.31;entryY=0;entryDx=0;entryDy=0;entryPerimeter=0;" edge="1" parent="1">
          <mxGeometry width="50" height="50" relative="1" as="geometry">
            <mxPoint x="590" y="150" as="sourcePoint" />
            <mxPoint x="590" y="280" as="targetPoint" />
          </mxGeometry>
        </mxCell>
        <mxCell id="_ivJ-W4mwV5zko-eiE7a-52" value="" style="endArrow=none;html=1;rounded=0;entryX=0.31;entryY=0;entryDx=0;entryDy=0;entryPerimeter=0;fontSize=5;" edge="1" parent="1">
          <mxGeometry width="50" height="50" relative="1" as="geometry">
            <mxPoint x="414.81" y="360" as="sourcePoint" />
            <mxPoint x="414.71" y="410" as="targetPoint" />
          </mxGeometry>
        </mxCell>
        <mxCell id="_ivJ-W4mwV5zko-eiE7a-53" value="" style="endArrow=none;html=1;rounded=0;entryX=0.31;entryY=0;entryDx=0;entryDy=0;entryPerimeter=0;fontSize=5;" edge="1" parent="1">
          <mxGeometry width="50" height="50" relative="1" as="geometry">
            <mxPoint x="424.81" y="360" as="sourcePoint" />
            <mxPoint x="424.71" y="410" as="targetPoint" />
          </mxGeometry>
        </mxCell>
        <mxCell id="_ivJ-W4mwV5zko-eiE7a-54" value="" style="endArrow=none;html=1;rounded=0;entryX=0.31;entryY=0;entryDx=0;entryDy=0;entryPerimeter=0;fontSize=5;" edge="1" parent="1">
          <mxGeometry width="50" height="50" relative="1" as="geometry">
            <mxPoint x="434.81" y="360" as="sourcePoint" />
            <mxPoint x="434.71" y="410" as="targetPoint" />
          </mxGeometry>
        </mxCell>
        <mxCell id="_ivJ-W4mwV5zko-eiE7a-55" value="" style="endArrow=none;html=1;rounded=0;entryX=0.31;entryY=0;entryDx=0;entryDy=0;entryPerimeter=0;fontSize=5;" edge="1" parent="1">
          <mxGeometry width="50" height="50" relative="1" as="geometry">
            <mxPoint x="444.81" y="360" as="sourcePoint" />
            <mxPoint x="444.71" y="410" as="targetPoint" />
          </mxGeometry>
        </mxCell>
        <mxCell id="_ivJ-W4mwV5zko-eiE7a-56" value="" style="endArrow=none;html=1;rounded=0;entryX=0.31;entryY=0;entryDx=0;entryDy=0;entryPerimeter=0;fontSize=5;" edge="1" parent="1">
          <mxGeometry width="50" height="50" relative="1" as="geometry">
            <mxPoint x="454.81" y="360" as="sourcePoint" />
            <mxPoint x="454.71" y="410" as="targetPoint" />
          </mxGeometry>
        </mxCell>
        <mxCell id="_ivJ-W4mwV5zko-eiE7a-57" value="" style="endArrow=none;html=1;rounded=0;entryX=0.31;entryY=0;entryDx=0;entryDy=0;entryPerimeter=0;fontSize=5;" edge="1" parent="1">
          <mxGeometry width="50" height="50" relative="1" as="geometry">
            <mxPoint x="464.81" y="360" as="sourcePoint" />
            <mxPoint x="464.71" y="410" as="targetPoint" />
          </mxGeometry>
        </mxCell>
        <mxCell id="_ivJ-W4mwV5zko-eiE7a-58" value="" style="endArrow=none;html=1;rounded=0;entryX=0.31;entryY=0;entryDx=0;entryDy=0;entryPerimeter=0;fontSize=5;" edge="1" parent="1">
          <mxGeometry width="50" height="50" relative="1" as="geometry">
            <mxPoint x="474.81" y="360" as="sourcePoint" />
            <mxPoint x="474.71" y="410" as="targetPoint" />
          </mxGeometry>
        </mxCell>
        <mxCell id="_ivJ-W4mwV5zko-eiE7a-59" value="" style="endArrow=none;html=1;rounded=0;entryX=0.31;entryY=0;entryDx=0;entryDy=0;entryPerimeter=0;fontSize=5;" edge="1" parent="1">
          <mxGeometry width="50" height="50" relative="1" as="geometry">
            <mxPoint x="504.81" y="360" as="sourcePoint" />
            <mxPoint x="504.71" y="410" as="targetPoint" />
          </mxGeometry>
        </mxCell>
        <mxCell id="_ivJ-W4mwV5zko-eiE7a-60" value="" style="endArrow=none;html=1;rounded=0;entryX=0.31;entryY=0;entryDx=0;entryDy=0;entryPerimeter=0;fontSize=5;" edge="1" parent="1">
          <mxGeometry width="50" height="50" relative="1" as="geometry">
            <mxPoint x="494.81" y="360" as="sourcePoint" />
            <mxPoint x="494.71" y="410" as="targetPoint" />
          </mxGeometry>
        </mxCell>
        <mxCell id="_ivJ-W4mwV5zko-eiE7a-61" value="" style="endArrow=none;html=1;rounded=0;entryX=0.31;entryY=0;entryDx=0;entryDy=0;entryPerimeter=0;fontSize=5;" edge="1" parent="1">
          <mxGeometry width="50" height="50" relative="1" as="geometry">
            <mxPoint x="514.8100000000001" y="360" as="sourcePoint" />
            <mxPoint x="514.71" y="410" as="targetPoint" />
          </mxGeometry>
        </mxCell>
        <mxCell id="_ivJ-W4mwV5zko-eiE7a-62" value="" style="endArrow=none;html=1;rounded=0;entryX=0.31;entryY=0;entryDx=0;entryDy=0;entryPerimeter=0;fontSize=5;" edge="1" parent="1">
          <mxGeometry width="50" height="50" relative="1" as="geometry">
            <mxPoint x="524.8100000000001" y="360" as="sourcePoint" />
            <mxPoint x="524.71" y="410" as="targetPoint" />
          </mxGeometry>
        </mxCell>
        <mxCell id="_ivJ-W4mwV5zko-eiE7a-63" value="" style="endArrow=none;html=1;rounded=0;entryX=0.31;entryY=0;entryDx=0;entryDy=0;entryPerimeter=0;fontSize=5;" edge="1" parent="1">
          <mxGeometry width="50" height="50" relative="1" as="geometry">
            <mxPoint x="534.8100000000001" y="360" as="sourcePoint" />
            <mxPoint x="534.71" y="410" as="targetPoint" />
          </mxGeometry>
        </mxCell>
        <mxCell id="_ivJ-W4mwV5zko-eiE7a-64" value="" style="endArrow=none;html=1;rounded=0;entryX=0.31;entryY=0;entryDx=0;entryDy=0;entryPerimeter=0;fontSize=5;" edge="1" parent="1">
          <mxGeometry width="50" height="50" relative="1" as="geometry">
            <mxPoint x="544.8100000000001" y="360" as="sourcePoint" />
            <mxPoint x="544.71" y="410" as="targetPoint" />
          </mxGeometry>
        </mxCell>
        <mxCell id="_ivJ-W4mwV5zko-eiE7a-65" value="" style="endArrow=none;html=1;rounded=0;entryX=0.31;entryY=0;entryDx=0;entryDy=0;entryPerimeter=0;fontSize=5;" edge="1" parent="1">
          <mxGeometry width="50" height="50" relative="1" as="geometry">
            <mxPoint x="554.8100000000001" y="360" as="sourcePoint" />
            <mxPoint x="554.71" y="410" as="targetPoint" />
          </mxGeometry>
        </mxCell>
        <mxCell id="_ivJ-W4mwV5zko-eiE7a-66" value="" style="endArrow=none;html=1;rounded=0;entryX=0.31;entryY=0;entryDx=0;entryDy=0;entryPerimeter=0;fontSize=5;" edge="1" parent="1">
          <mxGeometry width="50" height="50" relative="1" as="geometry">
            <mxPoint x="564.81" y="360" as="sourcePoint" />
            <mxPoint x="564.71" y="410" as="targetPoint" />
          </mxGeometry>
        </mxCell>
        <mxCell id="_ivJ-W4mwV5zko-eiE7a-67" value="" style="endArrow=none;html=1;rounded=0;entryX=0.31;entryY=0;entryDx=0;entryDy=0;entryPerimeter=0;fontSize=5;" edge="1" parent="1">
          <mxGeometry width="50" height="50" relative="1" as="geometry">
            <mxPoint x="484.81" y="360" as="sourcePoint" />
            <mxPoint x="484.71" y="410" as="targetPoint" />
          </mxGeometry>
        </mxCell>
        <mxCell id="_ivJ-W4mwV5zko-eiE7a-69" value="&lt;font style=&quot;font-size: 4px;&quot;&gt;A15&lt;/font&gt;" style="text;html=1;align=center;verticalAlign=middle;resizable=0;points=[];autosize=1;strokeColor=none;fillColor=none;fontSize=4;fontStyle=1" vertex="1" parent="1">
          <mxGeometry x="295" y="275" width="30" height="20" as="geometry" />
        </mxCell>
        <mxCell id="_ivJ-W4mwV5zko-eiE7a-71" value="&lt;font style=&quot;font-size: 4px;&quot;&gt;A14&lt;/font&gt;" style="text;html=1;align=center;verticalAlign=middle;resizable=0;points=[];autosize=1;strokeColor=none;fillColor=none;fontSize=4;fontStyle=1" vertex="1" parent="1">
          <mxGeometry x="305" y="275" width="30" height="20" as="geometry" />
        </mxCell>
        <mxCell id="_ivJ-W4mwV5zko-eiE7a-72" value="&lt;font style=&quot;font-size: 4px;&quot;&gt;A13&lt;/font&gt;" style="text;html=1;align=center;verticalAlign=middle;resizable=0;points=[];autosize=1;strokeColor=none;fillColor=none;fontSize=4;fontStyle=1" vertex="1" parent="1">
          <mxGeometry x="315" y="275" width="30" height="20" as="geometry" />
        </mxCell>
        <mxCell id="_ivJ-W4mwV5zko-eiE7a-73" value="&lt;font style=&quot;font-size: 4px;&quot;&gt;A12&lt;/font&gt;" style="text;html=1;align=center;verticalAlign=middle;resizable=0;points=[];autosize=1;strokeColor=none;fillColor=none;fontSize=4;fontStyle=1" vertex="1" parent="1">
          <mxGeometry x="325" y="275" width="30" height="20" as="geometry" />
        </mxCell>
        <mxCell id="_ivJ-W4mwV5zko-eiE7a-74" value="&lt;font style=&quot;font-size: 4px;&quot;&gt;A11&lt;/font&gt;" style="text;html=1;align=center;verticalAlign=middle;resizable=0;points=[];autosize=1;strokeColor=none;fillColor=none;fontSize=4;fontStyle=1" vertex="1" parent="1">
          <mxGeometry x="335" y="275" width="30" height="20" as="geometry" />
        </mxCell>
        <mxCell id="_ivJ-W4mwV5zko-eiE7a-75" value="&lt;font style=&quot;font-size: 4px;&quot;&gt;A10&lt;/font&gt;" style="text;html=1;align=center;verticalAlign=middle;resizable=0;points=[];autosize=1;strokeColor=none;fillColor=none;fontSize=4;fontStyle=1" vertex="1" parent="1">
          <mxGeometry x="345" y="275" width="30" height="20" as="geometry" />
        </mxCell>
        <mxCell id="_ivJ-W4mwV5zko-eiE7a-76" value="&lt;font style=&quot;font-size: 4px;&quot;&gt;A9&lt;/font&gt;" style="text;html=1;align=center;verticalAlign=middle;resizable=0;points=[];autosize=1;strokeColor=none;fillColor=none;fontSize=4;fontStyle=1" vertex="1" parent="1">
          <mxGeometry x="355" y="275" width="30" height="20" as="geometry" />
        </mxCell>
        <mxCell id="_ivJ-W4mwV5zko-eiE7a-77" value="&lt;font style=&quot;font-size: 4px;&quot;&gt;A8&lt;/font&gt;" style="text;html=1;align=center;verticalAlign=middle;resizable=0;points=[];autosize=1;strokeColor=none;fillColor=none;fontSize=4;fontStyle=1" vertex="1" parent="1">
          <mxGeometry x="365" y="275" width="30" height="20" as="geometry" />
        </mxCell>
        <mxCell id="_ivJ-W4mwV5zko-eiE7a-78" value="&lt;font style=&quot;font-size: 4px;&quot;&gt;A7&lt;/font&gt;" style="text;html=1;align=center;verticalAlign=middle;resizable=0;points=[];autosize=1;strokeColor=none;fillColor=none;fontSize=4;fontStyle=1" vertex="1" parent="1">
          <mxGeometry x="375" y="275" width="30" height="20" as="geometry" />
        </mxCell>
        <mxCell id="_ivJ-W4mwV5zko-eiE7a-79" value="&lt;font style=&quot;font-size: 4px;&quot;&gt;A6&lt;/font&gt;" style="text;html=1;align=center;verticalAlign=middle;resizable=0;points=[];autosize=1;strokeColor=none;fillColor=none;fontSize=4;fontStyle=1" vertex="1" parent="1">
          <mxGeometry x="385" y="275" width="30" height="20" as="geometry" />
        </mxCell>
        <mxCell id="_ivJ-W4mwV5zko-eiE7a-80" value="&lt;font style=&quot;font-size: 4px;&quot;&gt;A5&lt;/font&gt;" style="text;html=1;align=center;verticalAlign=middle;resizable=0;points=[];autosize=1;strokeColor=none;fillColor=none;fontSize=4;fontStyle=1" vertex="1" parent="1">
          <mxGeometry x="395" y="275" width="30" height="20" as="geometry" />
        </mxCell>
        <mxCell id="_ivJ-W4mwV5zko-eiE7a-81" value="&lt;font style=&quot;font-size: 4px;&quot;&gt;A4&lt;/font&gt;" style="text;html=1;align=center;verticalAlign=middle;resizable=0;points=[];autosize=1;strokeColor=none;fillColor=none;fontSize=4;fontStyle=1" vertex="1" parent="1">
          <mxGeometry x="405" y="275" width="30" height="20" as="geometry" />
        </mxCell>
        <mxCell id="_ivJ-W4mwV5zko-eiE7a-82" value="&lt;font style=&quot;font-size: 4px;&quot;&gt;A3&lt;/font&gt;" style="text;html=1;align=center;verticalAlign=middle;resizable=0;points=[];autosize=1;strokeColor=none;fillColor=none;fontSize=4;fontStyle=1" vertex="1" parent="1">
          <mxGeometry x="415" y="275" width="30" height="20" as="geometry" />
        </mxCell>
        <mxCell id="_ivJ-W4mwV5zko-eiE7a-83" value="&lt;font style=&quot;font-size: 4px;&quot;&gt;A2&lt;/font&gt;" style="text;html=1;align=center;verticalAlign=middle;resizable=0;points=[];autosize=1;strokeColor=none;fillColor=none;fontSize=4;fontStyle=1" vertex="1" parent="1">
          <mxGeometry x="425" y="275" width="30" height="20" as="geometry" />
        </mxCell>
        <mxCell id="_ivJ-W4mwV5zko-eiE7a-84" value="&lt;font style=&quot;font-size: 4px;&quot;&gt;A1&lt;/font&gt;" style="text;html=1;align=center;verticalAlign=middle;resizable=0;points=[];autosize=1;strokeColor=none;fillColor=none;fontSize=4;fontStyle=1" vertex="1" parent="1">
          <mxGeometry x="435" y="275" width="30" height="20" as="geometry" />
        </mxCell>
        <mxCell id="_ivJ-W4mwV5zko-eiE7a-85" value="&lt;font style=&quot;font-size: 4px;&quot;&gt;A0&lt;/font&gt;" style="text;html=1;align=center;verticalAlign=middle;resizable=0;points=[];autosize=1;strokeColor=none;fillColor=none;fontSize=4;fontStyle=1" vertex="1" parent="1">
          <mxGeometry x="445" y="275" width="30" height="20" as="geometry" />
        </mxCell>
        <mxCell id="_ivJ-W4mwV5zko-eiE7a-86" value="&lt;font style=&quot;font-size: 4px;&quot;&gt;B14&lt;/font&gt;" style="text;html=1;align=center;verticalAlign=middle;resizable=0;points=[];autosize=1;strokeColor=none;fillColor=none;fontSize=4;fontStyle=1" vertex="1" parent="1">
          <mxGeometry x="515" y="275" width="30" height="20" as="geometry" />
        </mxCell>
        <mxCell id="_ivJ-W4mwV5zko-eiE7a-87" value="&lt;font style=&quot;font-size: 4px;&quot;&gt;B13&lt;/font&gt;" style="text;html=1;align=center;verticalAlign=middle;resizable=0;points=[];autosize=1;strokeColor=none;fillColor=none;fontSize=4;fontStyle=1" vertex="1" parent="1">
          <mxGeometry x="525" y="275" width="30" height="20" as="geometry" />
        </mxCell>
        <mxCell id="_ivJ-W4mwV5zko-eiE7a-88" value="&lt;font style=&quot;font-size: 4px;&quot;&gt;B12&lt;/font&gt;" style="text;html=1;align=center;verticalAlign=middle;resizable=0;points=[];autosize=1;strokeColor=none;fillColor=none;fontSize=4;fontStyle=1" vertex="1" parent="1">
          <mxGeometry x="535" y="275" width="30" height="20" as="geometry" />
        </mxCell>
        <mxCell id="_ivJ-W4mwV5zko-eiE7a-89" value="&lt;font style=&quot;font-size: 4px;&quot;&gt;B11&lt;/font&gt;" style="text;html=1;align=center;verticalAlign=middle;resizable=0;points=[];autosize=1;strokeColor=none;fillColor=none;fontSize=4;fontStyle=1" vertex="1" parent="1">
          <mxGeometry x="545" y="275" width="30" height="20" as="geometry" />
        </mxCell>
        <mxCell id="_ivJ-W4mwV5zko-eiE7a-90" value="&lt;font style=&quot;font-size: 4px;&quot;&gt;B10&lt;/font&gt;" style="text;html=1;align=center;verticalAlign=middle;resizable=0;points=[];autosize=1;strokeColor=none;fillColor=none;fontSize=4;fontStyle=1" vertex="1" parent="1">
          <mxGeometry x="555" y="275" width="30" height="20" as="geometry" />
        </mxCell>
        <mxCell id="_ivJ-W4mwV5zko-eiE7a-91" value="&lt;font style=&quot;font-size: 4px;&quot;&gt;B9&lt;/font&gt;" style="text;html=1;align=center;verticalAlign=middle;resizable=0;points=[];autosize=1;strokeColor=none;fillColor=none;fontSize=4;fontStyle=1" vertex="1" parent="1">
          <mxGeometry x="565" y="275" width="30" height="20" as="geometry" />
        </mxCell>
        <mxCell id="_ivJ-W4mwV5zko-eiE7a-92" value="&lt;font style=&quot;font-size: 4px;&quot;&gt;B8&lt;/font&gt;" style="text;html=1;align=center;verticalAlign=middle;resizable=0;points=[];autosize=1;strokeColor=none;fillColor=none;fontSize=4;fontStyle=1" vertex="1" parent="1">
          <mxGeometry x="575" y="275" width="30" height="20" as="geometry" />
        </mxCell>
        <mxCell id="_ivJ-W4mwV5zko-eiE7a-93" value="&lt;font style=&quot;font-size: 4px;&quot;&gt;B7&lt;/font&gt;" style="text;html=1;align=center;verticalAlign=middle;resizable=0;points=[];autosize=1;strokeColor=none;fillColor=none;fontSize=4;fontStyle=1" vertex="1" parent="1">
          <mxGeometry x="585" y="275" width="30" height="20" as="geometry" />
        </mxCell>
        <mxCell id="_ivJ-W4mwV5zko-eiE7a-94" value="&lt;font style=&quot;font-size: 4px;&quot;&gt;B6&lt;/font&gt;" style="text;html=1;align=center;verticalAlign=middle;resizable=0;points=[];autosize=1;strokeColor=none;fillColor=none;fontSize=4;fontStyle=1" vertex="1" parent="1">
          <mxGeometry x="595" y="275" width="30" height="20" as="geometry" />
        </mxCell>
        <mxCell id="_ivJ-W4mwV5zko-eiE7a-95" value="&lt;font style=&quot;font-size: 4px;&quot;&gt;B5&lt;/font&gt;" style="text;html=1;align=center;verticalAlign=middle;resizable=0;points=[];autosize=1;strokeColor=none;fillColor=none;fontSize=4;fontStyle=1" vertex="1" parent="1">
          <mxGeometry x="605" y="275" width="30" height="20" as="geometry" />
        </mxCell>
        <mxCell id="_ivJ-W4mwV5zko-eiE7a-96" value="&lt;font style=&quot;font-size: 4px;&quot;&gt;B4&lt;/font&gt;" style="text;html=1;align=center;verticalAlign=middle;resizable=0;points=[];autosize=1;strokeColor=none;fillColor=none;fontSize=4;fontStyle=1" vertex="1" parent="1">
          <mxGeometry x="615" y="275" width="30" height="20" as="geometry" />
        </mxCell>
        <mxCell id="_ivJ-W4mwV5zko-eiE7a-97" value="&lt;font style=&quot;font-size: 4px;&quot;&gt;B3&lt;/font&gt;" style="text;html=1;align=center;verticalAlign=middle;resizable=0;points=[];autosize=1;strokeColor=none;fillColor=none;fontSize=4;fontStyle=1" vertex="1" parent="1">
          <mxGeometry x="625" y="275" width="30" height="20" as="geometry" />
        </mxCell>
        <mxCell id="_ivJ-W4mwV5zko-eiE7a-98" value="&lt;font style=&quot;font-size: 4px;&quot;&gt;B2&lt;/font&gt;" style="text;html=1;align=center;verticalAlign=middle;resizable=0;points=[];autosize=1;strokeColor=none;fillColor=none;fontSize=4;fontStyle=1" vertex="1" parent="1">
          <mxGeometry x="635" y="275" width="30" height="20" as="geometry" />
        </mxCell>
        <mxCell id="_ivJ-W4mwV5zko-eiE7a-99" value="&lt;font style=&quot;font-size: 4px;&quot;&gt;B1&lt;/font&gt;" style="text;html=1;align=center;verticalAlign=middle;resizable=0;points=[];autosize=1;strokeColor=none;fillColor=none;fontSize=4;fontStyle=1" vertex="1" parent="1">
          <mxGeometry x="645" y="275" width="30" height="20" as="geometry" />
        </mxCell>
        <mxCell id="_ivJ-W4mwV5zko-eiE7a-100" value="&lt;font style=&quot;font-size: 4px;&quot;&gt;B0&lt;/font&gt;" style="text;html=1;align=center;verticalAlign=middle;resizable=0;points=[];autosize=1;strokeColor=none;fillColor=none;fontSize=4;fontStyle=1" vertex="1" parent="1">
          <mxGeometry x="655" y="275" width="30" height="20" as="geometry" />
        </mxCell>
        <mxCell id="_ivJ-W4mwV5zko-eiE7a-101" value="&lt;font style=&quot;font-size: 4px;&quot;&gt;B15&lt;/font&gt;" style="text;html=1;align=center;verticalAlign=middle;resizable=0;points=[];autosize=1;strokeColor=none;fillColor=none;fontSize=4;fontStyle=1" vertex="1" parent="1">
          <mxGeometry x="505" y="275" width="30" height="20" as="geometry" />
        </mxCell>
        <mxCell id="_ivJ-W4mwV5zko-eiE7a-102" value="&lt;font style=&quot;font-size: 4px;&quot;&gt;Y15&lt;/font&gt;" style="text;html=1;align=center;verticalAlign=middle;resizable=0;points=[];autosize=1;strokeColor=none;fillColor=none;fontSize=4;fontStyle=1" vertex="1" parent="1">
          <mxGeometry x="400" y="340" width="30" height="20" as="geometry" />
        </mxCell>
        <mxCell id="_ivJ-W4mwV5zko-eiE7a-103" value="&lt;font style=&quot;font-size: 4px;&quot;&gt;Y14&lt;/font&gt;" style="text;html=1;align=center;verticalAlign=middle;resizable=0;points=[];autosize=1;strokeColor=none;fillColor=none;fontSize=4;fontStyle=1" vertex="1" parent="1">
          <mxGeometry x="410" y="340" width="30" height="20" as="geometry" />
        </mxCell>
        <mxCell id="_ivJ-W4mwV5zko-eiE7a-104" value="&lt;font style=&quot;font-size: 4px;&quot;&gt;Y13&lt;/font&gt;" style="text;html=1;align=center;verticalAlign=middle;resizable=0;points=[];autosize=1;strokeColor=none;fillColor=none;fontSize=4;fontStyle=1" vertex="1" parent="1">
          <mxGeometry x="420" y="340" width="30" height="20" as="geometry" />
        </mxCell>
        <mxCell id="_ivJ-W4mwV5zko-eiE7a-105" value="&lt;font style=&quot;font-size: 4px;&quot;&gt;Y12&lt;/font&gt;" style="text;html=1;align=center;verticalAlign=middle;resizable=0;points=[];autosize=1;strokeColor=none;fillColor=none;fontSize=4;fontStyle=1" vertex="1" parent="1">
          <mxGeometry x="430" y="340" width="30" height="20" as="geometry" />
        </mxCell>
        <mxCell id="_ivJ-W4mwV5zko-eiE7a-106" value="&lt;span style=&quot;font-size: 4px;&quot;&gt;Y11&lt;/span&gt;" style="text;html=1;align=center;verticalAlign=middle;resizable=0;points=[];autosize=1;strokeColor=none;fillColor=none;fontSize=4;fontStyle=1" vertex="1" parent="1">
          <mxGeometry x="440" y="340" width="30" height="20" as="geometry" />
        </mxCell>
        <mxCell id="_ivJ-W4mwV5zko-eiE7a-107" value="&lt;font style=&quot;font-size: 4px;&quot;&gt;Y10&lt;/font&gt;" style="text;html=1;align=center;verticalAlign=middle;resizable=0;points=[];autosize=1;strokeColor=none;fillColor=none;fontSize=4;fontStyle=1" vertex="1" parent="1">
          <mxGeometry x="450" y="340" width="30" height="20" as="geometry" />
        </mxCell>
        <mxCell id="_ivJ-W4mwV5zko-eiE7a-108" value="&lt;font style=&quot;font-size: 4px;&quot;&gt;Y9&lt;/font&gt;" style="text;html=1;align=center;verticalAlign=middle;resizable=0;points=[];autosize=1;strokeColor=none;fillColor=none;fontSize=4;fontStyle=1" vertex="1" parent="1">
          <mxGeometry x="460" y="340" width="30" height="20" as="geometry" />
        </mxCell>
        <mxCell id="_ivJ-W4mwV5zko-eiE7a-109" value="&lt;font style=&quot;font-size: 4px;&quot;&gt;Y8&lt;/font&gt;" style="text;html=1;align=center;verticalAlign=middle;resizable=0;points=[];autosize=1;strokeColor=none;fillColor=none;fontSize=4;fontStyle=1" vertex="1" parent="1">
          <mxGeometry x="470" y="340" width="30" height="20" as="geometry" />
        </mxCell>
        <mxCell id="_ivJ-W4mwV5zko-eiE7a-110" value="&lt;font style=&quot;font-size: 4px;&quot;&gt;Y7&lt;/font&gt;" style="text;html=1;align=center;verticalAlign=middle;resizable=0;points=[];autosize=1;strokeColor=none;fillColor=none;fontSize=4;fontStyle=1" vertex="1" parent="1">
          <mxGeometry x="480" y="340" width="30" height="20" as="geometry" />
        </mxCell>
        <mxCell id="_ivJ-W4mwV5zko-eiE7a-111" value="&lt;font style=&quot;font-size: 4px;&quot;&gt;Y6&lt;/font&gt;" style="text;html=1;align=center;verticalAlign=middle;resizable=0;points=[];autosize=1;strokeColor=none;fillColor=none;fontSize=4;fontStyle=1" vertex="1" parent="1">
          <mxGeometry x="490" y="340" width="30" height="20" as="geometry" />
        </mxCell>
        <mxCell id="_ivJ-W4mwV5zko-eiE7a-112" value="&lt;font style=&quot;font-size: 4px;&quot;&gt;Y5&lt;/font&gt;" style="text;html=1;align=center;verticalAlign=middle;resizable=0;points=[];autosize=1;strokeColor=none;fillColor=none;fontSize=4;fontStyle=1" vertex="1" parent="1">
          <mxGeometry x="500" y="340" width="30" height="20" as="geometry" />
        </mxCell>
        <mxCell id="_ivJ-W4mwV5zko-eiE7a-113" value="&lt;font style=&quot;font-size: 4px;&quot;&gt;Y4&lt;/font&gt;" style="text;html=1;align=center;verticalAlign=middle;resizable=0;points=[];autosize=1;strokeColor=none;fillColor=none;fontSize=4;fontStyle=1" vertex="1" parent="1">
          <mxGeometry x="510" y="340" width="30" height="20" as="geometry" />
        </mxCell>
        <mxCell id="_ivJ-W4mwV5zko-eiE7a-114" value="&lt;font style=&quot;font-size: 4px;&quot;&gt;Y3&lt;/font&gt;" style="text;html=1;align=center;verticalAlign=middle;resizable=0;points=[];autosize=1;strokeColor=none;fillColor=none;fontSize=4;fontStyle=1" vertex="1" parent="1">
          <mxGeometry x="520" y="340" width="30" height="20" as="geometry" />
        </mxCell>
        <mxCell id="_ivJ-W4mwV5zko-eiE7a-115" value="&lt;font style=&quot;font-size: 4px;&quot;&gt;Y2&lt;/font&gt;" style="text;html=1;align=center;verticalAlign=middle;resizable=0;points=[];autosize=1;strokeColor=none;fillColor=none;fontSize=4;fontStyle=1" vertex="1" parent="1">
          <mxGeometry x="530" y="340" width="30" height="20" as="geometry" />
        </mxCell>
        <mxCell id="_ivJ-W4mwV5zko-eiE7a-116" value="&lt;font style=&quot;font-size: 4px;&quot;&gt;Y1&lt;/font&gt;" style="text;html=1;align=center;verticalAlign=middle;resizable=0;points=[];autosize=1;strokeColor=none;fillColor=none;fontSize=4;fontStyle=1" vertex="1" parent="1">
          <mxGeometry x="540" y="340" width="30" height="20" as="geometry" />
        </mxCell>
        <mxCell id="_ivJ-W4mwV5zko-eiE7a-117" value="&lt;font style=&quot;font-size: 4px;&quot;&gt;Y0&lt;/font&gt;" style="text;html=1;align=center;verticalAlign=middle;resizable=0;points=[];autosize=1;strokeColor=none;fillColor=none;fontSize=4;fontStyle=1" vertex="1" parent="1">
          <mxGeometry x="550" y="340" width="30" height="20" as="geometry" />
        </mxCell>
        <mxCell id="_ivJ-W4mwV5zko-eiE7a-119" value="&lt;font style=&quot;font-size: 7px;&quot;&gt;OP&lt;/font&gt;" style="text;html=1;align=center;verticalAlign=middle;resizable=0;points=[];autosize=1;strokeColor=none;fillColor=none;fontSize=4;fontStyle=1" vertex="1" parent="1">
          <mxGeometry x="290" y="310" width="30" height="20" as="geometry" />
        </mxCell>
        <mxCell id="_ivJ-W4mwV5zko-eiE7a-120" value="" style="endArrow=none;html=1;rounded=0;entryX=1;entryY=0.5;entryDx=0;entryDy=0;fontSize=5;" edge="1" parent="1">
          <mxGeometry width="50" height="50" relative="1" as="geometry">
            <mxPoint x="290" y="330" as="sourcePoint" />
            <mxPoint x="250" y="330" as="targetPoint" />
            <Array as="points">
              <mxPoint x="250" y="330" />
            </Array>
          </mxGeometry>
        </mxCell>
        <mxCell id="_ivJ-W4mwV5zko-eiE7a-121" value="" style="endArrow=none;html=1;rounded=0;entryX=1;entryY=0.5;entryDx=0;entryDy=0;fontSize=5;" edge="1" parent="1">
          <mxGeometry width="50" height="50" relative="1" as="geometry">
            <mxPoint x="290" y="305" as="sourcePoint" />
            <mxPoint x="250" y="305" as="targetPoint" />
            <Array as="points">
              <mxPoint x="250" y="305" />
            </Array>
          </mxGeometry>
        </mxCell>
        <mxCell id="_ivJ-W4mwV5zko-eiE7a-122" value="" style="rounded=0;whiteSpace=wrap;html=1;strokeWidth=1;fontSize=7;" vertex="1" parent="1">
          <mxGeometry x="390" y="410" width="200" height="60" as="geometry" />
        </mxCell>
        <mxCell id="_ivJ-W4mwV5zko-eiE7a-123" value="REGISTER" style="text;html=1;align=center;verticalAlign=middle;resizable=0;points=[];autosize=1;strokeColor=none;fillColor=none;rotation=0;fontSize=7;strokeWidth=1;arcSize=12;fontStyle=1" vertex="1" parent="1">
          <mxGeometry x="460" y="430" width="60" height="20" as="geometry" />
        </mxCell>
        <mxCell id="_ivJ-W4mwV5zko-eiE7a-154" value="&lt;font style=&quot;font-size: 4px;&quot;&gt;R15&lt;/font&gt;" style="text;html=1;align=center;verticalAlign=middle;resizable=0;points=[];autosize=1;strokeColor=none;fillColor=none;fontSize=4;fontStyle=1" vertex="1" parent="1">
          <mxGeometry x="400" y="410" width="30" height="20" as="geometry" />
        </mxCell>
        <mxCell id="_ivJ-W4mwV5zko-eiE7a-155" value="&lt;font style=&quot;font-size: 4px;&quot;&gt;R14&lt;/font&gt;" style="text;html=1;align=center;verticalAlign=middle;resizable=0;points=[];autosize=1;strokeColor=none;fillColor=none;fontSize=4;fontStyle=1" vertex="1" parent="1">
          <mxGeometry x="410" y="410" width="30" height="20" as="geometry" />
        </mxCell>
        <mxCell id="_ivJ-W4mwV5zko-eiE7a-156" value="&lt;font style=&quot;font-size: 4px;&quot;&gt;R13&lt;/font&gt;" style="text;html=1;align=center;verticalAlign=middle;resizable=0;points=[];autosize=1;strokeColor=none;fillColor=none;fontSize=4;fontStyle=1" vertex="1" parent="1">
          <mxGeometry x="420" y="410" width="30" height="20" as="geometry" />
        </mxCell>
        <mxCell id="_ivJ-W4mwV5zko-eiE7a-157" value="&lt;font style=&quot;font-size: 4px;&quot;&gt;R12&lt;/font&gt;" style="text;html=1;align=center;verticalAlign=middle;resizable=0;points=[];autosize=1;strokeColor=none;fillColor=none;fontSize=4;fontStyle=1" vertex="1" parent="1">
          <mxGeometry x="430" y="410" width="30" height="20" as="geometry" />
        </mxCell>
        <mxCell id="_ivJ-W4mwV5zko-eiE7a-158" value="&lt;font style=&quot;font-size: 4px;&quot;&gt;R11&lt;/font&gt;" style="text;html=1;align=center;verticalAlign=middle;resizable=0;points=[];autosize=1;strokeColor=none;fillColor=none;fontSize=4;fontStyle=1" vertex="1" parent="1">
          <mxGeometry x="440" y="410" width="30" height="20" as="geometry" />
        </mxCell>
        <mxCell id="_ivJ-W4mwV5zko-eiE7a-159" value="&lt;font style=&quot;font-size: 4px;&quot;&gt;R10&lt;/font&gt;" style="text;html=1;align=center;verticalAlign=middle;resizable=0;points=[];autosize=1;strokeColor=none;fillColor=none;fontSize=4;fontStyle=1" vertex="1" parent="1">
          <mxGeometry x="450" y="410" width="30" height="20" as="geometry" />
        </mxCell>
        <mxCell id="_ivJ-W4mwV5zko-eiE7a-160" value="&lt;font style=&quot;font-size: 4px;&quot;&gt;R9&lt;/font&gt;" style="text;html=1;align=center;verticalAlign=middle;resizable=0;points=[];autosize=1;strokeColor=none;fillColor=none;fontSize=4;fontStyle=1" vertex="1" parent="1">
          <mxGeometry x="460" y="410" width="30" height="20" as="geometry" />
        </mxCell>
        <mxCell id="_ivJ-W4mwV5zko-eiE7a-161" value="&lt;font style=&quot;font-size: 4px;&quot;&gt;R8&lt;/font&gt;" style="text;html=1;align=center;verticalAlign=middle;resizable=0;points=[];autosize=1;strokeColor=none;fillColor=none;fontSize=4;fontStyle=1" vertex="1" parent="1">
          <mxGeometry x="470" y="410" width="30" height="20" as="geometry" />
        </mxCell>
        <mxCell id="_ivJ-W4mwV5zko-eiE7a-162" value="&lt;font style=&quot;font-size: 4px;&quot;&gt;R7&lt;/font&gt;" style="text;html=1;align=center;verticalAlign=middle;resizable=0;points=[];autosize=1;strokeColor=none;fillColor=none;fontSize=4;fontStyle=1" vertex="1" parent="1">
          <mxGeometry x="480" y="410" width="30" height="20" as="geometry" />
        </mxCell>
        <mxCell id="_ivJ-W4mwV5zko-eiE7a-163" value="&lt;font style=&quot;font-size: 4px;&quot;&gt;R6&lt;/font&gt;" style="text;html=1;align=center;verticalAlign=middle;resizable=0;points=[];autosize=1;strokeColor=none;fillColor=none;fontSize=4;fontStyle=1" vertex="1" parent="1">
          <mxGeometry x="490" y="410" width="30" height="20" as="geometry" />
        </mxCell>
        <mxCell id="_ivJ-W4mwV5zko-eiE7a-164" value="&lt;font style=&quot;font-size: 4px;&quot;&gt;R5&lt;/font&gt;" style="text;html=1;align=center;verticalAlign=middle;resizable=0;points=[];autosize=1;strokeColor=none;fillColor=none;fontSize=4;fontStyle=1" vertex="1" parent="1">
          <mxGeometry x="500" y="410" width="30" height="20" as="geometry" />
        </mxCell>
        <mxCell id="_ivJ-W4mwV5zko-eiE7a-165" value="&lt;font style=&quot;font-size: 4px;&quot;&gt;R4&lt;/font&gt;" style="text;html=1;align=center;verticalAlign=middle;resizable=0;points=[];autosize=1;strokeColor=none;fillColor=none;fontSize=4;fontStyle=1" vertex="1" parent="1">
          <mxGeometry x="510" y="410" width="30" height="20" as="geometry" />
        </mxCell>
        <mxCell id="_ivJ-W4mwV5zko-eiE7a-166" value="&lt;font style=&quot;font-size: 4px;&quot;&gt;R3&lt;/font&gt;" style="text;html=1;align=center;verticalAlign=middle;resizable=0;points=[];autosize=1;strokeColor=none;fillColor=none;fontSize=4;fontStyle=1" vertex="1" parent="1">
          <mxGeometry x="520" y="410" width="30" height="20" as="geometry" />
        </mxCell>
        <mxCell id="_ivJ-W4mwV5zko-eiE7a-167" value="&lt;font style=&quot;font-size: 4px;&quot;&gt;R2&lt;/font&gt;" style="text;html=1;align=center;verticalAlign=middle;resizable=0;points=[];autosize=1;strokeColor=none;fillColor=none;fontSize=4;fontStyle=1" vertex="1" parent="1">
          <mxGeometry x="530" y="410" width="30" height="20" as="geometry" />
        </mxCell>
        <mxCell id="_ivJ-W4mwV5zko-eiE7a-168" value="&lt;font style=&quot;font-size: 4px;&quot;&gt;R1&lt;/font&gt;" style="text;html=1;align=center;verticalAlign=middle;resizable=0;points=[];autosize=1;strokeColor=none;fillColor=none;fontSize=4;fontStyle=1" vertex="1" parent="1">
          <mxGeometry x="540" y="410" width="30" height="20" as="geometry" />
        </mxCell>
        <mxCell id="_ivJ-W4mwV5zko-eiE7a-169" value="&lt;font style=&quot;font-size: 4px;&quot;&gt;R0&lt;/font&gt;" style="text;html=1;align=center;verticalAlign=middle;resizable=0;points=[];autosize=1;strokeColor=none;fillColor=none;fontSize=4;fontStyle=1" vertex="1" parent="1">
          <mxGeometry x="550" y="410" width="30" height="20" as="geometry" />
        </mxCell>
        <mxCell id="_ivJ-W4mwV5zko-eiE7a-170" value="" style="endArrow=none;html=1;rounded=0;entryX=1;entryY=0.5;entryDx=0;entryDy=0;fontSize=5;" edge="1" parent="1">
          <mxGeometry width="50" height="50" relative="1" as="geometry">
            <mxPoint x="390" y="429.31" as="sourcePoint" />
            <mxPoint x="350" y="429.31" as="targetPoint" />
            <Array as="points">
              <mxPoint x="350" y="429.31" />
            </Array>
          </mxGeometry>
        </mxCell>
        <mxCell id="_ivJ-W4mwV5zko-eiE7a-171" value="" style="endArrow=none;html=1;rounded=0;entryX=1;entryY=0.5;entryDx=0;entryDy=0;fontSize=5;" edge="1" parent="1">
          <mxGeometry width="50" height="50" relative="1" as="geometry">
            <mxPoint x="390" y="449.31" as="sourcePoint" />
            <mxPoint x="350" y="449.31" as="targetPoint" />
            <Array as="points">
              <mxPoint x="350" y="449.31" />
            </Array>
          </mxGeometry>
        </mxCell>
        <mxCell id="_ivJ-W4mwV5zko-eiE7a-172" value="&lt;font style=&quot;font-size: 7px;&quot;&gt;ADDR&lt;/font&gt;" style="text;html=1;align=center;verticalAlign=middle;resizable=0;points=[];autosize=1;strokeColor=none;fillColor=none;fontSize=4;fontStyle=1" vertex="1" parent="1">
          <mxGeometry x="385" y="430" width="40" height="20" as="geometry" />
        </mxCell>
        <mxCell id="_ivJ-W4mwV5zko-eiE7a-173" value="" style="endArrow=none;html=1;rounded=0;strokeWidth=1;fontSize=7;" edge="1" parent="1">
          <mxGeometry width="50" height="50" relative="1" as="geometry">
            <mxPoint x="670" y="230" as="sourcePoint" />
            <mxPoint x="770" y="230" as="targetPoint" />
          </mxGeometry>
        </mxCell>
        <mxCell id="_ivJ-W4mwV5zko-eiE7a-174" value="" style="endArrow=none;html=1;rounded=0;" edge="1" parent="1">
          <mxGeometry width="50" height="50" relative="1" as="geometry">
            <mxPoint x="770" y="230" as="sourcePoint" />
            <mxPoint x="770" y="520" as="targetPoint" />
          </mxGeometry>
        </mxCell>
        <mxCell id="_ivJ-W4mwV5zko-eiE7a-175" value="" style="endArrow=none;html=1;rounded=0;strokeWidth=1;fontSize=7;" edge="1" parent="1">
          <mxGeometry width="50" height="50" relative="1" as="geometry">
            <mxPoint x="565" y="520" as="sourcePoint" />
            <mxPoint x="770" y="520" as="targetPoint" />
          </mxGeometry>
        </mxCell>
        <mxCell id="_ivJ-W4mwV5zko-eiE7a-176" value="" style="endArrow=none;html=1;rounded=0;" edge="1" parent="1">
          <mxGeometry width="50" height="50" relative="1" as="geometry">
            <mxPoint x="414.4099999999999" y="470" as="sourcePoint" />
            <mxPoint x="414" y="670" as="targetPoint" />
          </mxGeometry>
        </mxCell>
        <mxCell id="_ivJ-W4mwV5zko-eiE7a-177" value="" style="endArrow=none;html=1;rounded=0;" edge="1" parent="1">
          <mxGeometry width="50" height="50" relative="1" as="geometry">
            <mxPoint x="424.4099999999999" y="470" as="sourcePoint" />
            <mxPoint x="424" y="660" as="targetPoint" />
          </mxGeometry>
        </mxCell>
        <mxCell id="_ivJ-W4mwV5zko-eiE7a-178" value="" style="endArrow=none;html=1;rounded=0;" edge="1" parent="1">
          <mxGeometry width="50" height="50" relative="1" as="geometry">
            <mxPoint x="434.4099999999999" y="470" as="sourcePoint" />
            <mxPoint x="434" y="650" as="targetPoint" />
          </mxGeometry>
        </mxCell>
        <mxCell id="_ivJ-W4mwV5zko-eiE7a-179" value="" style="endArrow=none;html=1;rounded=0;" edge="1" parent="1">
          <mxGeometry width="50" height="50" relative="1" as="geometry">
            <mxPoint x="444.4099999999999" y="470" as="sourcePoint" />
            <mxPoint x="444" y="640" as="targetPoint" />
          </mxGeometry>
        </mxCell>
        <mxCell id="_ivJ-W4mwV5zko-eiE7a-180" value="" style="endArrow=none;html=1;rounded=0;" edge="1" parent="1">
          <mxGeometry width="50" height="50" relative="1" as="geometry">
            <mxPoint x="454.4099999999999" y="470" as="sourcePoint" />
            <mxPoint x="454" y="630" as="targetPoint" />
          </mxGeometry>
        </mxCell>
        <mxCell id="_ivJ-W4mwV5zko-eiE7a-181" value="" style="endArrow=none;html=1;rounded=0;" edge="1" parent="1">
          <mxGeometry width="50" height="50" relative="1" as="geometry">
            <mxPoint x="464.4099999999999" y="470" as="sourcePoint" />
            <mxPoint x="464" y="620" as="targetPoint" />
          </mxGeometry>
        </mxCell>
        <mxCell id="_ivJ-W4mwV5zko-eiE7a-182" value="" style="endArrow=none;html=1;rounded=0;" edge="1" parent="1">
          <mxGeometry width="50" height="50" relative="1" as="geometry">
            <mxPoint x="474.4099999999999" y="470" as="sourcePoint" />
            <mxPoint x="474" y="610" as="targetPoint" />
          </mxGeometry>
        </mxCell>
        <mxCell id="_ivJ-W4mwV5zko-eiE7a-183" value="" style="endArrow=none;html=1;rounded=0;" edge="1" parent="1">
          <mxGeometry width="50" height="50" relative="1" as="geometry">
            <mxPoint x="504.4099999999999" y="470" as="sourcePoint" />
            <mxPoint x="504" y="580" as="targetPoint" />
          </mxGeometry>
        </mxCell>
        <mxCell id="_ivJ-W4mwV5zko-eiE7a-184" value="" style="endArrow=none;html=1;rounded=0;" edge="1" parent="1">
          <mxGeometry width="50" height="50" relative="1" as="geometry">
            <mxPoint x="494.4099999999999" y="470" as="sourcePoint" />
            <mxPoint x="494" y="590" as="targetPoint" />
          </mxGeometry>
        </mxCell>
        <mxCell id="_ivJ-W4mwV5zko-eiE7a-185" value="" style="endArrow=none;html=1;rounded=0;" edge="1" parent="1">
          <mxGeometry width="50" height="50" relative="1" as="geometry">
            <mxPoint x="514.4099999999999" y="470" as="sourcePoint" />
            <mxPoint x="514" y="570" as="targetPoint" />
          </mxGeometry>
        </mxCell>
        <mxCell id="_ivJ-W4mwV5zko-eiE7a-186" value="" style="endArrow=none;html=1;rounded=0;" edge="1" parent="1">
          <mxGeometry width="50" height="50" relative="1" as="geometry">
            <mxPoint x="524.4099999999999" y="470" as="sourcePoint" />
            <mxPoint x="524" y="560" as="targetPoint" />
          </mxGeometry>
        </mxCell>
        <mxCell id="_ivJ-W4mwV5zko-eiE7a-187" value="" style="endArrow=none;html=1;rounded=0;" edge="1" parent="1">
          <mxGeometry width="50" height="50" relative="1" as="geometry">
            <mxPoint x="534.4099999999999" y="470" as="sourcePoint" />
            <mxPoint x="534" y="550" as="targetPoint" />
          </mxGeometry>
        </mxCell>
        <mxCell id="_ivJ-W4mwV5zko-eiE7a-188" value="" style="endArrow=none;html=1;rounded=0;" edge="1" parent="1">
          <mxGeometry width="50" height="50" relative="1" as="geometry">
            <mxPoint x="544.4099999999999" y="470" as="sourcePoint" />
            <mxPoint x="544" y="540" as="targetPoint" />
          </mxGeometry>
        </mxCell>
        <mxCell id="_ivJ-W4mwV5zko-eiE7a-189" value="" style="endArrow=none;html=1;rounded=0;" edge="1" parent="1">
          <mxGeometry width="50" height="50" relative="1" as="geometry">
            <mxPoint x="554.4099999999999" y="470" as="sourcePoint" />
            <mxPoint x="554" y="530" as="targetPoint" />
          </mxGeometry>
        </mxCell>
        <mxCell id="_ivJ-W4mwV5zko-eiE7a-190" value="" style="endArrow=none;html=1;rounded=0;entryX=0.31;entryY=0;entryDx=0;entryDy=0;entryPerimeter=0;" edge="1" parent="1">
          <mxGeometry width="50" height="50" relative="1" as="geometry">
            <mxPoint x="564.4099999999999" y="470" as="sourcePoint" />
            <mxPoint x="564.31" y="520" as="targetPoint" />
          </mxGeometry>
        </mxCell>
        <mxCell id="_ivJ-W4mwV5zko-eiE7a-191" value="" style="endArrow=none;html=1;rounded=0;" edge="1" parent="1">
          <mxGeometry width="50" height="50" relative="1" as="geometry">
            <mxPoint x="484.4099999999999" y="470" as="sourcePoint" />
            <mxPoint x="484" y="600" as="targetPoint" />
          </mxGeometry>
        </mxCell>
        <mxCell id="_ivJ-W4mwV5zko-eiE7a-192" value="&lt;font style=&quot;font-size: 4px;&quot;&gt;O15&lt;/font&gt;" style="text;html=1;align=center;verticalAlign=middle;resizable=0;points=[];autosize=1;strokeColor=none;fillColor=none;fontSize=4;fontStyle=1" vertex="1" parent="1">
          <mxGeometry x="400" y="450" width="30" height="20" as="geometry" />
        </mxCell>
        <mxCell id="_ivJ-W4mwV5zko-eiE7a-193" value="&lt;font style=&quot;font-size: 4px;&quot;&gt;O14&lt;/font&gt;" style="text;html=1;align=center;verticalAlign=middle;resizable=0;points=[];autosize=1;strokeColor=none;fillColor=none;fontSize=4;fontStyle=1" vertex="1" parent="1">
          <mxGeometry x="410" y="450" width="30" height="20" as="geometry" />
        </mxCell>
        <mxCell id="_ivJ-W4mwV5zko-eiE7a-194" value="&lt;font style=&quot;font-size: 4px;&quot;&gt;O13&lt;/font&gt;" style="text;html=1;align=center;verticalAlign=middle;resizable=0;points=[];autosize=1;strokeColor=none;fillColor=none;fontSize=4;fontStyle=1" vertex="1" parent="1">
          <mxGeometry x="420" y="450" width="30" height="20" as="geometry" />
        </mxCell>
        <mxCell id="_ivJ-W4mwV5zko-eiE7a-195" value="&lt;font style=&quot;font-size: 4px;&quot;&gt;O12&lt;/font&gt;" style="text;html=1;align=center;verticalAlign=middle;resizable=0;points=[];autosize=1;strokeColor=none;fillColor=none;fontSize=4;fontStyle=1" vertex="1" parent="1">
          <mxGeometry x="430" y="450" width="30" height="20" as="geometry" />
        </mxCell>
        <mxCell id="_ivJ-W4mwV5zko-eiE7a-196" value="&lt;font style=&quot;font-size: 4px;&quot;&gt;O11&lt;/font&gt;" style="text;html=1;align=center;verticalAlign=middle;resizable=0;points=[];autosize=1;strokeColor=none;fillColor=none;fontSize=4;fontStyle=1" vertex="1" parent="1">
          <mxGeometry x="440" y="450" width="30" height="20" as="geometry" />
        </mxCell>
        <mxCell id="_ivJ-W4mwV5zko-eiE7a-197" value="&lt;font style=&quot;font-size: 4px;&quot;&gt;O10&lt;/font&gt;" style="text;html=1;align=center;verticalAlign=middle;resizable=0;points=[];autosize=1;strokeColor=none;fillColor=none;fontSize=4;fontStyle=1" vertex="1" parent="1">
          <mxGeometry x="450" y="450" width="30" height="20" as="geometry" />
        </mxCell>
        <mxCell id="_ivJ-W4mwV5zko-eiE7a-198" value="&lt;font style=&quot;font-size: 4px;&quot;&gt;O9&lt;/font&gt;" style="text;html=1;align=center;verticalAlign=middle;resizable=0;points=[];autosize=1;strokeColor=none;fillColor=none;fontSize=4;fontStyle=1" vertex="1" parent="1">
          <mxGeometry x="460" y="450" width="30" height="20" as="geometry" />
        </mxCell>
        <mxCell id="_ivJ-W4mwV5zko-eiE7a-199" value="&lt;font style=&quot;font-size: 4px;&quot;&gt;O8&lt;/font&gt;" style="text;html=1;align=center;verticalAlign=middle;resizable=0;points=[];autosize=1;strokeColor=none;fillColor=none;fontSize=4;fontStyle=1" vertex="1" parent="1">
          <mxGeometry x="470" y="450" width="30" height="20" as="geometry" />
        </mxCell>
        <mxCell id="_ivJ-W4mwV5zko-eiE7a-200" value="&lt;font style=&quot;font-size: 4px;&quot;&gt;O7&lt;/font&gt;" style="text;html=1;align=center;verticalAlign=middle;resizable=0;points=[];autosize=1;strokeColor=none;fillColor=none;fontSize=4;fontStyle=1" vertex="1" parent="1">
          <mxGeometry x="480" y="450" width="30" height="20" as="geometry" />
        </mxCell>
        <mxCell id="_ivJ-W4mwV5zko-eiE7a-201" value="&lt;font style=&quot;font-size: 4px;&quot;&gt;O6&lt;/font&gt;" style="text;html=1;align=center;verticalAlign=middle;resizable=0;points=[];autosize=1;strokeColor=none;fillColor=none;fontSize=4;fontStyle=1" vertex="1" parent="1">
          <mxGeometry x="490" y="450" width="30" height="20" as="geometry" />
        </mxCell>
        <mxCell id="_ivJ-W4mwV5zko-eiE7a-202" value="&lt;font style=&quot;font-size: 4px;&quot;&gt;O5&lt;/font&gt;" style="text;html=1;align=center;verticalAlign=middle;resizable=0;points=[];autosize=1;strokeColor=none;fillColor=none;fontSize=4;fontStyle=1" vertex="1" parent="1">
          <mxGeometry x="500" y="450" width="30" height="20" as="geometry" />
        </mxCell>
        <mxCell id="_ivJ-W4mwV5zko-eiE7a-203" value="&lt;font style=&quot;font-size: 4px;&quot;&gt;O4&lt;/font&gt;" style="text;html=1;align=center;verticalAlign=middle;resizable=0;points=[];autosize=1;strokeColor=none;fillColor=none;fontSize=4;fontStyle=1" vertex="1" parent="1">
          <mxGeometry x="510" y="450" width="30" height="20" as="geometry" />
        </mxCell>
        <mxCell id="_ivJ-W4mwV5zko-eiE7a-204" value="&lt;font style=&quot;font-size: 4px;&quot;&gt;O3&lt;/font&gt;" style="text;html=1;align=center;verticalAlign=middle;resizable=0;points=[];autosize=1;strokeColor=none;fillColor=none;fontSize=4;fontStyle=1" vertex="1" parent="1">
          <mxGeometry x="520" y="450" width="30" height="20" as="geometry" />
        </mxCell>
        <mxCell id="_ivJ-W4mwV5zko-eiE7a-205" value="&lt;font style=&quot;font-size: 4px;&quot;&gt;O2&lt;/font&gt;" style="text;html=1;align=center;verticalAlign=middle;resizable=0;points=[];autosize=1;strokeColor=none;fillColor=none;fontSize=4;fontStyle=1" vertex="1" parent="1">
          <mxGeometry x="530" y="450" width="30" height="20" as="geometry" />
        </mxCell>
        <mxCell id="_ivJ-W4mwV5zko-eiE7a-206" value="&lt;font style=&quot;font-size: 4px;&quot;&gt;O1&lt;/font&gt;" style="text;html=1;align=center;verticalAlign=middle;resizable=0;points=[];autosize=1;strokeColor=none;fillColor=none;fontSize=4;fontStyle=1" vertex="1" parent="1">
          <mxGeometry x="540" y="450" width="30" height="20" as="geometry" />
        </mxCell>
        <mxCell id="_ivJ-W4mwV5zko-eiE7a-207" value="&lt;font style=&quot;font-size: 4px;&quot;&gt;O0&lt;/font&gt;" style="text;html=1;align=center;verticalAlign=middle;resizable=0;points=[];autosize=1;strokeColor=none;fillColor=none;fontSize=4;fontStyle=1" vertex="1" parent="1">
          <mxGeometry x="550" y="450" width="30" height="20" as="geometry" />
        </mxCell>
        <mxCell id="_ivJ-W4mwV5zko-eiE7a-208" value="" style="endArrow=none;html=1;rounded=0;strokeWidth=1;fontSize=7;" edge="1" parent="1">
          <mxGeometry width="50" height="50" relative="1" as="geometry">
            <mxPoint x="660" y="220" as="sourcePoint" />
            <mxPoint x="780" y="220" as="targetPoint" />
          </mxGeometry>
        </mxCell>
        <mxCell id="_ivJ-W4mwV5zko-eiE7a-210" value="" style="endArrow=none;html=1;rounded=0;strokeWidth=1;fontSize=7;" edge="1" parent="1">
          <mxGeometry width="50" height="50" relative="1" as="geometry">
            <mxPoint x="650" y="210" as="sourcePoint" />
            <mxPoint x="790" y="210" as="targetPoint" />
          </mxGeometry>
        </mxCell>
        <mxCell id="_ivJ-W4mwV5zko-eiE7a-211" value="" style="endArrow=none;html=1;rounded=0;strokeWidth=1;fontSize=7;" edge="1" parent="1">
          <mxGeometry width="50" height="50" relative="1" as="geometry">
            <mxPoint x="640" y="200" as="sourcePoint" />
            <mxPoint x="800" y="200" as="targetPoint" />
          </mxGeometry>
        </mxCell>
        <mxCell id="_ivJ-W4mwV5zko-eiE7a-212" value="" style="endArrow=none;html=1;rounded=0;strokeWidth=1;fontSize=7;" edge="1" parent="1">
          <mxGeometry width="50" height="50" relative="1" as="geometry">
            <mxPoint x="630" y="190" as="sourcePoint" />
            <mxPoint x="810" y="190" as="targetPoint" />
          </mxGeometry>
        </mxCell>
        <mxCell id="_ivJ-W4mwV5zko-eiE7a-213" value="" style="endArrow=none;html=1;rounded=0;strokeWidth=1;fontSize=7;" edge="1" parent="1">
          <mxGeometry width="50" height="50" relative="1" as="geometry">
            <mxPoint x="620" y="180" as="sourcePoint" />
            <mxPoint x="820" y="180" as="targetPoint" />
          </mxGeometry>
        </mxCell>
        <mxCell id="_ivJ-W4mwV5zko-eiE7a-214" value="" style="endArrow=none;html=1;rounded=0;strokeWidth=1;fontSize=7;" edge="1" parent="1">
          <mxGeometry width="50" height="50" relative="1" as="geometry">
            <mxPoint x="610" y="170" as="sourcePoint" />
            <mxPoint x="830" y="170" as="targetPoint" />
          </mxGeometry>
        </mxCell>
        <mxCell id="_ivJ-W4mwV5zko-eiE7a-215" value="" style="endArrow=none;html=1;rounded=0;strokeWidth=1;fontSize=7;" edge="1" parent="1">
          <mxGeometry width="50" height="50" relative="1" as="geometry">
            <mxPoint x="600" y="160" as="sourcePoint" />
            <mxPoint x="840" y="160" as="targetPoint" />
          </mxGeometry>
        </mxCell>
        <mxCell id="_ivJ-W4mwV5zko-eiE7a-216" value="" style="endArrow=none;html=1;rounded=0;strokeWidth=1;fontSize=7;" edge="1" parent="1">
          <mxGeometry width="50" height="50" relative="1" as="geometry">
            <mxPoint x="590" y="150" as="sourcePoint" />
            <mxPoint x="850" y="150" as="targetPoint" />
          </mxGeometry>
        </mxCell>
        <mxCell id="_ivJ-W4mwV5zko-eiE7a-217" value="" style="endArrow=none;html=1;rounded=0;strokeWidth=1;fontSize=7;" edge="1" parent="1">
          <mxGeometry width="50" height="50" relative="1" as="geometry">
            <mxPoint x="580" y="140" as="sourcePoint" />
            <mxPoint x="860" y="140" as="targetPoint" />
          </mxGeometry>
        </mxCell>
        <mxCell id="_ivJ-W4mwV5zko-eiE7a-218" value="" style="endArrow=none;html=1;rounded=0;strokeWidth=1;fontSize=7;" edge="1" parent="1">
          <mxGeometry width="50" height="50" relative="1" as="geometry">
            <mxPoint x="570" y="130" as="sourcePoint" />
            <mxPoint x="870" y="130" as="targetPoint" />
          </mxGeometry>
        </mxCell>
        <mxCell id="_ivJ-W4mwV5zko-eiE7a-219" value="" style="endArrow=none;html=1;rounded=0;strokeWidth=1;fontSize=7;" edge="1" parent="1">
          <mxGeometry width="50" height="50" relative="1" as="geometry">
            <mxPoint x="560" y="120" as="sourcePoint" />
            <mxPoint x="880" y="120" as="targetPoint" />
          </mxGeometry>
        </mxCell>
        <mxCell id="_ivJ-W4mwV5zko-eiE7a-220" value="" style="endArrow=none;html=1;rounded=0;strokeWidth=1;fontSize=7;" edge="1" parent="1">
          <mxGeometry width="50" height="50" relative="1" as="geometry">
            <mxPoint x="550" y="110" as="sourcePoint" />
            <mxPoint x="890" y="110" as="targetPoint" />
          </mxGeometry>
        </mxCell>
        <mxCell id="_ivJ-W4mwV5zko-eiE7a-221" value="" style="endArrow=none;html=1;rounded=0;strokeWidth=1;fontSize=7;" edge="1" parent="1">
          <mxGeometry width="50" height="50" relative="1" as="geometry">
            <mxPoint x="540" y="100" as="sourcePoint" />
            <mxPoint x="900" y="100" as="targetPoint" />
          </mxGeometry>
        </mxCell>
        <mxCell id="_ivJ-W4mwV5zko-eiE7a-222" value="" style="endArrow=none;html=1;rounded=0;strokeWidth=1;fontSize=7;" edge="1" parent="1">
          <mxGeometry width="50" height="50" relative="1" as="geometry">
            <mxPoint x="530" y="90" as="sourcePoint" />
            <mxPoint x="910" y="90" as="targetPoint" />
          </mxGeometry>
        </mxCell>
        <mxCell id="_ivJ-W4mwV5zko-eiE7a-223" value="" style="endArrow=none;html=1;rounded=0;strokeWidth=1;fontSize=7;" edge="1" parent="1">
          <mxGeometry width="50" height="50" relative="1" as="geometry">
            <mxPoint x="520" y="80" as="sourcePoint" />
            <mxPoint x="920" y="80" as="targetPoint" />
          </mxGeometry>
        </mxCell>
        <mxCell id="_ivJ-W4mwV5zko-eiE7a-224" value="" style="endArrow=none;html=1;rounded=0;" edge="1" parent="1">
          <mxGeometry width="50" height="50" relative="1" as="geometry">
            <mxPoint x="780" y="220" as="sourcePoint" />
            <mxPoint x="780" y="530" as="targetPoint" />
          </mxGeometry>
        </mxCell>
        <mxCell id="_ivJ-W4mwV5zko-eiE7a-225" value="" style="endArrow=none;html=1;rounded=0;" edge="1" parent="1">
          <mxGeometry width="50" height="50" relative="1" as="geometry">
            <mxPoint x="790" y="210" as="sourcePoint" />
            <mxPoint x="790" y="540" as="targetPoint" />
          </mxGeometry>
        </mxCell>
        <mxCell id="_ivJ-W4mwV5zko-eiE7a-226" value="" style="endArrow=none;html=1;rounded=0;" edge="1" parent="1">
          <mxGeometry width="50" height="50" relative="1" as="geometry">
            <mxPoint x="920" y="80" as="sourcePoint" />
            <mxPoint x="920" y="670" as="targetPoint" />
          </mxGeometry>
        </mxCell>
        <mxCell id="_ivJ-W4mwV5zko-eiE7a-227" value="" style="endArrow=none;html=1;rounded=0;" edge="1" parent="1">
          <mxGeometry width="50" height="50" relative="1" as="geometry">
            <mxPoint x="910" y="90" as="sourcePoint" />
            <mxPoint x="910" y="660" as="targetPoint" />
          </mxGeometry>
        </mxCell>
        <mxCell id="_ivJ-W4mwV5zko-eiE7a-228" value="" style="endArrow=none;html=1;rounded=0;" edge="1" parent="1">
          <mxGeometry width="50" height="50" relative="1" as="geometry">
            <mxPoint x="900" y="100" as="sourcePoint" />
            <mxPoint x="900" y="650" as="targetPoint" />
          </mxGeometry>
        </mxCell>
        <mxCell id="_ivJ-W4mwV5zko-eiE7a-229" value="" style="endArrow=none;html=1;rounded=0;" edge="1" parent="1">
          <mxGeometry width="50" height="50" relative="1" as="geometry">
            <mxPoint x="890" y="110" as="sourcePoint" />
            <mxPoint x="890" y="640" as="targetPoint" />
          </mxGeometry>
        </mxCell>
        <mxCell id="_ivJ-W4mwV5zko-eiE7a-230" value="" style="endArrow=none;html=1;rounded=0;" edge="1" parent="1">
          <mxGeometry width="50" height="50" relative="1" as="geometry">
            <mxPoint x="880" y="120" as="sourcePoint" />
            <mxPoint x="880" y="630" as="targetPoint" />
          </mxGeometry>
        </mxCell>
        <mxCell id="_ivJ-W4mwV5zko-eiE7a-231" value="" style="endArrow=none;html=1;rounded=0;" edge="1" parent="1">
          <mxGeometry width="50" height="50" relative="1" as="geometry">
            <mxPoint x="870" y="130" as="sourcePoint" />
            <mxPoint x="870" y="620" as="targetPoint" />
          </mxGeometry>
        </mxCell>
        <mxCell id="_ivJ-W4mwV5zko-eiE7a-232" value="" style="endArrow=none;html=1;rounded=0;" edge="1" parent="1">
          <mxGeometry width="50" height="50" relative="1" as="geometry">
            <mxPoint x="860" y="140" as="sourcePoint" />
            <mxPoint x="860" y="610" as="targetPoint" />
          </mxGeometry>
        </mxCell>
        <mxCell id="_ivJ-W4mwV5zko-eiE7a-233" value="" style="endArrow=none;html=1;rounded=0;" edge="1" parent="1">
          <mxGeometry width="50" height="50" relative="1" as="geometry">
            <mxPoint x="850" y="150" as="sourcePoint" />
            <mxPoint x="850" y="600" as="targetPoint" />
          </mxGeometry>
        </mxCell>
        <mxCell id="_ivJ-W4mwV5zko-eiE7a-234" value="" style="endArrow=none;html=1;rounded=0;" edge="1" parent="1">
          <mxGeometry width="50" height="50" relative="1" as="geometry">
            <mxPoint x="840" y="160" as="sourcePoint" />
            <mxPoint x="840" y="590" as="targetPoint" />
          </mxGeometry>
        </mxCell>
        <mxCell id="_ivJ-W4mwV5zko-eiE7a-235" value="" style="endArrow=none;html=1;rounded=0;" edge="1" parent="1">
          <mxGeometry width="50" height="50" relative="1" as="geometry">
            <mxPoint x="830" y="170" as="sourcePoint" />
            <mxPoint x="830" y="580" as="targetPoint" />
          </mxGeometry>
        </mxCell>
        <mxCell id="_ivJ-W4mwV5zko-eiE7a-236" value="" style="endArrow=none;html=1;rounded=0;" edge="1" parent="1">
          <mxGeometry width="50" height="50" relative="1" as="geometry">
            <mxPoint x="820" y="180" as="sourcePoint" />
            <mxPoint x="820" y="570" as="targetPoint" />
          </mxGeometry>
        </mxCell>
        <mxCell id="_ivJ-W4mwV5zko-eiE7a-237" value="" style="endArrow=none;html=1;rounded=0;" edge="1" parent="1">
          <mxGeometry width="50" height="50" relative="1" as="geometry">
            <mxPoint x="810" y="190" as="sourcePoint" />
            <mxPoint x="810" y="560" as="targetPoint" />
          </mxGeometry>
        </mxCell>
        <mxCell id="_ivJ-W4mwV5zko-eiE7a-238" value="" style="endArrow=none;html=1;rounded=0;" edge="1" parent="1">
          <mxGeometry width="50" height="50" relative="1" as="geometry">
            <mxPoint x="800" y="200" as="sourcePoint" />
            <mxPoint x="800" y="550" as="targetPoint" />
          </mxGeometry>
        </mxCell>
        <mxCell id="_ivJ-W4mwV5zko-eiE7a-240" value="" style="endArrow=none;html=1;rounded=0;strokeWidth=1;fontSize=7;" edge="1" parent="1">
          <mxGeometry width="50" height="50" relative="1" as="geometry">
            <mxPoint x="555" y="530" as="sourcePoint" />
            <mxPoint x="780" y="530" as="targetPoint" />
          </mxGeometry>
        </mxCell>
        <mxCell id="_ivJ-W4mwV5zko-eiE7a-241" value="" style="endArrow=none;html=1;rounded=0;strokeWidth=1;fontSize=7;" edge="1" parent="1">
          <mxGeometry width="50" height="50" relative="1" as="geometry">
            <mxPoint x="545" y="540" as="sourcePoint" />
            <mxPoint x="790" y="540" as="targetPoint" />
          </mxGeometry>
        </mxCell>
        <mxCell id="_ivJ-W4mwV5zko-eiE7a-242" value="" style="endArrow=none;html=1;rounded=0;strokeWidth=1;fontSize=7;" edge="1" parent="1">
          <mxGeometry width="50" height="50" relative="1" as="geometry">
            <mxPoint x="535" y="550" as="sourcePoint" />
            <mxPoint x="800" y="550" as="targetPoint" />
          </mxGeometry>
        </mxCell>
        <mxCell id="_ivJ-W4mwV5zko-eiE7a-243" value="" style="endArrow=none;html=1;rounded=0;strokeWidth=1;fontSize=7;" edge="1" parent="1">
          <mxGeometry width="50" height="50" relative="1" as="geometry">
            <mxPoint x="525" y="560" as="sourcePoint" />
            <mxPoint x="810" y="560" as="targetPoint" />
          </mxGeometry>
        </mxCell>
        <mxCell id="_ivJ-W4mwV5zko-eiE7a-244" value="" style="endArrow=none;html=1;rounded=0;strokeWidth=1;fontSize=7;" edge="1" parent="1">
          <mxGeometry width="50" height="50" relative="1" as="geometry">
            <mxPoint x="515" y="570" as="sourcePoint" />
            <mxPoint x="820" y="570" as="targetPoint" />
          </mxGeometry>
        </mxCell>
        <mxCell id="_ivJ-W4mwV5zko-eiE7a-245" value="" style="endArrow=none;html=1;rounded=0;strokeWidth=1;fontSize=7;" edge="1" parent="1">
          <mxGeometry width="50" height="50" relative="1" as="geometry">
            <mxPoint x="505" y="580" as="sourcePoint" />
            <mxPoint x="830" y="580" as="targetPoint" />
          </mxGeometry>
        </mxCell>
        <mxCell id="_ivJ-W4mwV5zko-eiE7a-246" value="" style="endArrow=none;html=1;rounded=0;strokeWidth=1;fontSize=7;" edge="1" parent="1">
          <mxGeometry width="50" height="50" relative="1" as="geometry">
            <mxPoint x="493.75" y="590" as="sourcePoint" />
            <mxPoint x="840" y="590" as="targetPoint" />
          </mxGeometry>
        </mxCell>
        <mxCell id="_ivJ-W4mwV5zko-eiE7a-247" value="" style="endArrow=none;html=1;rounded=0;strokeWidth=1;fontSize=7;" edge="1" parent="1">
          <mxGeometry width="50" height="50" relative="1" as="geometry">
            <mxPoint x="483.75" y="600" as="sourcePoint" />
            <mxPoint x="850" y="600" as="targetPoint" />
          </mxGeometry>
        </mxCell>
        <mxCell id="_ivJ-W4mwV5zko-eiE7a-248" value="" style="endArrow=none;html=1;rounded=0;strokeWidth=1;fontSize=7;" edge="1" parent="1">
          <mxGeometry width="50" height="50" relative="1" as="geometry">
            <mxPoint x="473.75" y="610" as="sourcePoint" />
            <mxPoint x="860" y="610" as="targetPoint" />
          </mxGeometry>
        </mxCell>
        <mxCell id="_ivJ-W4mwV5zko-eiE7a-249" value="" style="endArrow=none;html=1;rounded=0;strokeWidth=1;fontSize=7;" edge="1" parent="1">
          <mxGeometry width="50" height="50" relative="1" as="geometry">
            <mxPoint x="463.75" y="620" as="sourcePoint" />
            <mxPoint x="870" y="620" as="targetPoint" />
          </mxGeometry>
        </mxCell>
        <mxCell id="_ivJ-W4mwV5zko-eiE7a-250" value="" style="endArrow=none;html=1;rounded=0;strokeWidth=1;fontSize=7;" edge="1" parent="1">
          <mxGeometry width="50" height="50" relative="1" as="geometry">
            <mxPoint x="453.75" y="630" as="sourcePoint" />
            <mxPoint x="880" y="630" as="targetPoint" />
          </mxGeometry>
        </mxCell>
        <mxCell id="_ivJ-W4mwV5zko-eiE7a-251" value="" style="endArrow=none;html=1;rounded=0;strokeWidth=1;fontSize=7;" edge="1" parent="1">
          <mxGeometry width="50" height="50" relative="1" as="geometry">
            <mxPoint x="443.75" y="640" as="sourcePoint" />
            <mxPoint x="890" y="640" as="targetPoint" />
          </mxGeometry>
        </mxCell>
        <mxCell id="_ivJ-W4mwV5zko-eiE7a-252" value="" style="endArrow=none;html=1;rounded=0;strokeWidth=1;fontSize=7;" edge="1" parent="1">
          <mxGeometry width="50" height="50" relative="1" as="geometry">
            <mxPoint x="433.75" y="650" as="sourcePoint" />
            <mxPoint x="900" y="650" as="targetPoint" />
          </mxGeometry>
        </mxCell>
        <mxCell id="_ivJ-W4mwV5zko-eiE7a-253" value="" style="endArrow=none;html=1;rounded=0;strokeWidth=1;fontSize=7;" edge="1" parent="1">
          <mxGeometry width="50" height="50" relative="1" as="geometry">
            <mxPoint x="423.75" y="660" as="sourcePoint" />
            <mxPoint x="910" y="660" as="targetPoint" />
          </mxGeometry>
        </mxCell>
        <mxCell id="_ivJ-W4mwV5zko-eiE7a-254" value="" style="endArrow=none;html=1;rounded=0;strokeWidth=1;fontSize=7;" edge="1" parent="1">
          <mxGeometry width="50" height="50" relative="1" as="geometry">
            <mxPoint x="413.75" y="670" as="sourcePoint" />
            <mxPoint x="920" y="670" as="targetPoint" />
          </mxGeometry>
        </mxCell>
      </root>
    </mxGraphModel>
  </diagram>
</mxfile>
